#tb 0: 1/2
#media_type 0: video
#codec_id 0: rawvideo
#dimensions 0: 320x240
#sar 0: 1/1
0,          0,          0,        1,   115200, 0x2213b502
0,          1,          1,        1,   115200, 0xeba70ff3
0,          2,          2,        1,   115200, 0xa764e4d5
0,          3,          3,        1,   115200, 0x2213b502
0,          4,          4,        1,   115200, 0x2213b502
0,          5,          5,        1,   115200, 0x2213b502
